<?xml version="1.0" encoding="utf-8" ?>	<!-- Generator: Assembly 2.2 - http://assemblyapp.co -->	<svg version="1.1" xmlns="http://www.w3.org/2000/svg" xmlns:xlink="http://www.w3.org/1999/xlink" width="2048.00" height="2048.00" viewBox="0 0 2048.0 2048.0">		<g id="document" transform="matrix(1,0,0,1,1024.0,1024.0)">			<path d="M324.531,275.738 L-116.188,275.738 C-326.063,275.738 -497.639,104.162 -497.639,-105.713 C-497.639,-315.587 -326.063,-487.164 -116.188,-487.164 C-1.29359,-487.164 105.942,-438.142 181.006,-347.758 C196.326,-329.375 225.432,-326.311 243.815,-341.63 C262.199,-356.95 265.263,-386.056 249.943,-404.44 C159.559,-513.207 27.8131,-576.016 -113.125,-576.016 C-375.085,-576.016 -584.96,-363.077 -584.96,-105.713 C-584.96,151.652 -372.021,364.59 -114.657,364.59 L326.063,364.59 C350.574,364.59 370.489,346.207 370.489,320.164 C370.489,294.121 349.042,275.738 324.531,275.738 Z M-358.234,-105.713 C-358.234,-238.991 -249.466,-349.29 -114.657,-349.29 C-42.6557,-349.29 26.2812,-317.119 72.2391,-261.97 C87.5584,-243.587 116.665,-240.523 135.048,-255.842 C153.432,-271.161 156.495,-300.268 141.176,-318.651 C78.3669,-395.248 -15.081,-439.674 -114.657,-439.674 C-298.488,-439.674 -447.086,-291.077 -447.086,-107.245 C-447.086,76.587 -298.488,225.184 -114.657,225.184 L226.488,225.184 C250.998,225.184 270.914,206.801 270.914,180.758 C270.914,154.716 252.53,136.332 226.488,136.332 L-116.188,136.332 C-249.466,137.864 -358.234,27.5652 -358.234,-105.713 Z M-114.657,1.52234 L-117.72,87.3105 L326.063,87.3105 C350.574,87.3105 370.489,68.9273 370.489,42.8845 C370.489,16.8416 352.106,1.52233 329.127,1.52233 L-114.657,1.52234 Z " fill="#000000" fill-opacity="1.00" />		</g>	</svg>